<mxfile host="app.diagrams.net" modified="2023-10-23T17:29:50.251Z" agent="Mozilla/5.0 (Windows NT 10.0; Win64; x64) AppleWebKit/537.36 (KHTML, like Gecko) Chrome/118.0.0.0 Safari/537.36" etag="D1-8PxRDQbTjpDYQAifQ" version="22.0.6" type="device">
  <diagram name="Page-1" id="EbAEV_jTW3WetPSAjjS8">
    <mxGraphModel dx="880" dy="490" grid="1" gridSize="10" guides="1" tooltips="1" connect="1" arrows="1" fold="1" page="1" pageScale="1" pageWidth="850" pageHeight="1100" background="#FFFFFF" math="0" shadow="0">
      <root>
        <mxCell id="0" />
        <mxCell id="1" parent="0" />
        <mxCell id="UfVapmBmuUFkcLh0fFch-613" value="" style="edgeStyle=orthogonalEdgeStyle;rounded=0;orthogonalLoop=1;jettySize=auto;html=1;strokeColor=#23445D;" edge="1" parent="1" source="UfVapmBmuUFkcLh0fFch-614" target="UfVapmBmuUFkcLh0fFch-618">
          <mxGeometry relative="1" as="geometry" />
        </mxCell>
        <mxCell id="UfVapmBmuUFkcLh0fFch-614" value="Edit Review" style="rounded=1;whiteSpace=wrap;html=1;fontSize=15;glass=0;strokeWidth=1;shadow=0;labelBackgroundColor=none;fillColor=#182E3E;strokeColor=#FFFFFF;fontColor=#FFFFFF;fontStyle=1" vertex="1" parent="1">
          <mxGeometry x="336" y="110" width="149" height="48" as="geometry" />
        </mxCell>
        <mxCell id="UfVapmBmuUFkcLh0fFch-615" value="" style="edgeStyle=orthogonalEdgeStyle;rounded=0;orthogonalLoop=1;jettySize=auto;html=1;strokeColor=#23445D;" edge="1" parent="1">
          <mxGeometry relative="1" as="geometry">
            <mxPoint x="451" y="260" as="sourcePoint" />
            <mxPoint x="549" y="260" as="targetPoint" />
          </mxGeometry>
        </mxCell>
        <mxCell id="UfVapmBmuUFkcLh0fFch-616" value="Invalid User" style="rounded=1;whiteSpace=wrap;html=1;strokeColor=#FFFFFF;fontColor=#FFFFFF;fillColor=#182E3E;" vertex="1" parent="1">
          <mxGeometry x="549" y="240" width="120" height="40" as="geometry" />
        </mxCell>
        <mxCell id="UfVapmBmuUFkcLh0fFch-617" value="" style="edgeStyle=orthogonalEdgeStyle;rounded=0;orthogonalLoop=1;jettySize=auto;html=1;strokeColor=#23445D;" edge="1" parent="1" source="UfVapmBmuUFkcLh0fFch-618" target="UfVapmBmuUFkcLh0fFch-622">
          <mxGeometry relative="1" as="geometry" />
        </mxCell>
        <mxCell id="UfVapmBmuUFkcLh0fFch-618" value="is &lt;br&gt;user valid?&lt;br&gt;." style="rhombus;whiteSpace=wrap;html=1;strokeColor=#FFFFFF;fontColor=#FFFFFF;fillColor=#182E3E;" vertex="1" parent="1">
          <mxGeometry x="371" y="220" width="80" height="80" as="geometry" />
        </mxCell>
        <mxCell id="UfVapmBmuUFkcLh0fFch-619" value="No" style="text;html=1;strokeColor=none;fillColor=none;align=center;verticalAlign=middle;whiteSpace=wrap;rounded=0;fontColor=default;" vertex="1" parent="1">
          <mxGeometry x="459" y="240" width="60" height="30" as="geometry" />
        </mxCell>
        <mxCell id="UfVapmBmuUFkcLh0fFch-620" value="" style="edgeStyle=orthogonalEdgeStyle;rounded=0;orthogonalLoop=1;jettySize=auto;html=1;strokeColor=#23445D;" edge="1" parent="1" source="UfVapmBmuUFkcLh0fFch-622" target="UfVapmBmuUFkcLh0fFch-624">
          <mxGeometry relative="1" as="geometry" />
        </mxCell>
        <mxCell id="UfVapmBmuUFkcLh0fFch-621" value="" style="edgeStyle=orthogonalEdgeStyle;rounded=0;orthogonalLoop=1;jettySize=auto;html=1;strokeColor=#23445D;" edge="1" parent="1" source="UfVapmBmuUFkcLh0fFch-622">
          <mxGeometry relative="1" as="geometry">
            <mxPoint x="259" y="361" as="targetPoint" />
          </mxGeometry>
        </mxCell>
        <mxCell id="UfVapmBmuUFkcLh0fFch-622" value="all &lt;br&gt;required input given?" style="rhombus;whiteSpace=wrap;html=1;strokeColor=#FFFFFF;fontColor=#FFFFFF;fillColor=#182E3E;" vertex="1" parent="1">
          <mxGeometry x="210" y="210" width="98" height="100" as="geometry" />
        </mxCell>
        <mxCell id="UfVapmBmuUFkcLh0fFch-623" value="Yes" style="text;html=1;strokeColor=none;fillColor=none;align=center;verticalAlign=middle;whiteSpace=wrap;rounded=0;fontColor=default;" vertex="1" parent="1">
          <mxGeometry x="308" y="235" width="60" height="30" as="geometry" />
        </mxCell>
        <mxCell id="UfVapmBmuUFkcLh0fFch-624" value="give appropriate response asking input" style="rounded=1;whiteSpace=wrap;html=1;fillColor=#182E3E;strokeColor=#FFFFFF;fontColor=#FFFFFF;" vertex="1" parent="1">
          <mxGeometry x="9" y="233" width="132" height="55" as="geometry" />
        </mxCell>
        <mxCell id="UfVapmBmuUFkcLh0fFch-625" value="No" style="text;html=1;strokeColor=none;fillColor=none;align=center;verticalAlign=middle;whiteSpace=wrap;rounded=0;fontColor=default;" vertex="1" parent="1">
          <mxGeometry x="149" y="238" width="60" height="30" as="geometry" />
        </mxCell>
        <mxCell id="UfVapmBmuUFkcLh0fFch-626" value="" style="edgeStyle=orthogonalEdgeStyle;rounded=0;orthogonalLoop=1;jettySize=auto;html=1;strokeColor=#23445D;exitX=0;exitY=0.75;exitDx=0;exitDy=0;" edge="1" parent="1" source="UfVapmBmuUFkcLh0fFch-630" target="UfVapmBmuUFkcLh0fFch-629">
          <mxGeometry relative="1" as="geometry">
            <mxPoint x="209" y="404" as="sourcePoint" />
            <Array as="points">
              <mxPoint x="337" y="404" />
              <mxPoint x="337" y="404" />
            </Array>
          </mxGeometry>
        </mxCell>
        <mxCell id="UfVapmBmuUFkcLh0fFch-627" value="" style="edgeStyle=orthogonalEdgeStyle;rounded=0;orthogonalLoop=1;jettySize=auto;html=1;strokeColor=#23445D;" edge="1" parent="1" source="UfVapmBmuUFkcLh0fFch-628" target="UfVapmBmuUFkcLh0fFch-631">
          <mxGeometry relative="1" as="geometry" />
        </mxCell>
        <mxCell id="UfVapmBmuUFkcLh0fFch-628" value="is data valid?" style="rhombus;whiteSpace=wrap;html=1;fillColor=#182E3E;strokeColor=#FFFFFF;fontColor=#FFFFFF;" vertex="1" parent="1">
          <mxGeometry x="213" y="360" width="94" height="89" as="geometry" />
        </mxCell>
        <mxCell id="UfVapmBmuUFkcLh0fFch-629" value="Give appropriate response" style="rounded=1;whiteSpace=wrap;html=1;fillColor=#182E3E;strokeColor=#FFFFFF;fontColor=#FFFFFF;" vertex="1" parent="1">
          <mxGeometry x="389" y="379" width="120" height="50" as="geometry" />
        </mxCell>
        <mxCell id="UfVapmBmuUFkcLh0fFch-630" value="No" style="text;html=1;strokeColor=none;fillColor=none;align=center;verticalAlign=middle;whiteSpace=wrap;rounded=0;fontColor=default;" vertex="1" parent="1">
          <mxGeometry x="294" y="381" width="60" height="30" as="geometry" />
        </mxCell>
        <mxCell id="UfVapmBmuUFkcLh0fFch-631" value="Review Updated" style="rounded=1;whiteSpace=wrap;html=1;fillColor=#182E3E;strokeColor=#FFFFFF;fontColor=#FFFFFF;fontSize=15;fontStyle=1" vertex="1" parent="1">
          <mxGeometry x="175" y="502" width="171" height="60" as="geometry" />
        </mxCell>
        <mxCell id="UfVapmBmuUFkcLh0fFch-632" value="Yes" style="text;html=1;strokeColor=none;fillColor=none;align=center;verticalAlign=middle;whiteSpace=wrap;rounded=0;fontColor=default;" vertex="1" parent="1">
          <mxGeometry x="240" y="450" width="60" height="30" as="geometry" />
        </mxCell>
        <mxCell id="UfVapmBmuUFkcLh0fFch-633" value="Yes" style="text;html=1;strokeColor=none;fillColor=none;align=center;verticalAlign=middle;whiteSpace=wrap;rounded=0;fontColor=default;" vertex="1" parent="1">
          <mxGeometry x="247" y="316" width="60" height="30" as="geometry" />
        </mxCell>
      </root>
    </mxGraphModel>
  </diagram>
</mxfile>
